<?xml version="1.0" standalone="no"?>
<!DOCTYPE svg PUBLIC "-//W3C//DTD SVG 20010904//EN"
 "http://www.w3.org/TR/2001/REC-SVG-20010904/DTD/svg10.dtd">
<svg version="1.0" xmlns="http://www.w3.org/2000/svg"
 width="600.000000pt" height="600.000000pt" viewBox="0 0 600.000000 600.000000"
 preserveAspectRatio="xMidYMid meet">

<g transform="translate(0.000000,600.000000) scale(0.100000,-0.100000)"
fill="#000000" stroke="none">
<path d="M3650 5143 c-40 -14 -94 -61 -118 -102 -25 -43 -27 -54 -27 -166 l0
-120 60 -5 60 -5 3 -218 c1 -132 -1 -217 -7 -215 -5 1 -175 139 -377 306 -217
179 -391 314 -424 330 -49 24 -66 27 -155 27 -162 0 3 123 -1560 -1162 -490
-403 -743 -617 -749 -634 -15 -44 0 -73 110 -211 128 -160 136 -168 183 -168
39 0 108 55 1151 920 625 517 802 661 826 670 15 6 41 8 56 4 18 -3 396 -305
994 -795 906 -741 967 -789 1003 -789 22 0 48 7 59 18 12 9 71 79 132 156 93
117 110 144 110 174 0 44 13 31 -383 357 l-316 260 -1 493 0 492 60 0 60 0 0
108 c-1 152 -28 210 -122 258 -47 24 -51 24 -330 23 -156 0 -290 -3 -298 -6z"/>
<path d="M2637 4061 c-10 -3 -351 -280 -758 -615 l-739 -609 0 -888 0 -889
-110 0 -110 0 0 -105 0 -105 765 -2 c421 -2 765 -2 765 -1 0 1 -14 17 -31 35
-16 18 -45 63 -62 100 l-32 68 -202 0 -202 0 -16 52 c-19 65 -19 99 0 145 14
32 14 38 0 53 -14 15 -11 32 25 170 22 85 46 165 53 179 51 100 96 146 158
161 l49 12 0 166 c0 256 29 356 136 472 103 110 214 160 356 160 144 -1 241
-37 338 -127 123 -113 160 -203 168 -405 2 -76 8 -138 11 -137 3 0 25 27 48
59 23 33 76 85 117 117 l74 58 4 85 3 85 120 0 120 0 3 -32 c4 -38 6 -38 77
-18 38 11 54 22 58 37 6 20 8 21 226 13 l221 -7 -5 28 c-2 16 -12 101 -21 189
-8 88 -19 185 -22 216 l-7 56 -725 598 c-399 328 -738 606 -755 616 -31 19
-66 23 -98 10z m-1055 -1807 c4 -151 10 -144 -120 -144 -71 0 -112 4 -120 12
-13 13 -18 219 -5 231 3 4 59 7 124 7 l118 0 3 -106z m372 90 c11 -30 7 -209
-6 -222 -16 -16 -220 -16 -236 0 -13 13 -17 192 -6 222 5 13 26 16 124 16 98
0 119 -3 124 -16z m-372 -460 c4 -152 11 -144 -126 -144 -95 0 -115 3 -120 16
-8 20 -8 198 0 218 5 13 26 16 124 16 l119 0 3 -106z m363 -19 l0 -120 -114
-3 c-75 -2 -118 1 -127 9 -10 8 -14 38 -14 109 0 54 3 106 6 114 5 14 24 16
128 14 l121 -3 0 -120z"/>
<path d="M3985 2223 c-359 -44 -581 -153 -689 -337 l-39 -66 -146 0 c-263 0
-596 -35 -816 -85 -60 -14 -121 -28 -135 -31 -23 -5 -67 -60 -56 -71 2 -3 9 5
16 16 10 19 20 21 100 21 79 0 89 -2 95 -20 17 -52 -43 -87 -166 -97 l-79 -6
-9 -36 c-39 -150 -39 -145 -22 -179 12 -27 13 -40 3 -77 -24 -91 -36 -86 165
-83 l178 3 8 49 c20 118 99 237 191 283 144 73 279 68 403 -14 87 -58 135
-131 163 -248 l17 -70 709 0 708 0 17 72 c33 148 87 219 209 277 59 28 74 31
160 31 87 0 101 -3 161 -32 115 -57 202 -174 216 -292 l6 -51 121 0 122 0 27
42 c27 41 27 44 26 203 0 88 -6 201 -12 250 -12 88 -13 90 -47 108 -30 16 -51
18 -161 13 l-126 -6 -14 26 c-22 42 -130 135 -218 188 -167 101 -454 186 -723
215 -91 10 -296 13 -363 4z m164 -49 l61 -7 0 -163 0 -164 -425 0 c-488 0
-467 -5 -367 90 40 38 96 74 178 117 214 110 370 146 553 127z m306 -35 c135
-39 294 -143 385 -251 l41 -48 -285 0 -286 0 0 165 0 166 38 -6 c20 -4 69 -15
107 -26z m-287 -414 c43 -10 40 -29 -8 -54 -53 -27 -88 -27 -146 3 l-47 24 44
21 c44 20 80 21 157 6z m647 1 c21 -8 41 -18 43 -24 5 -15 -74 -52 -111 -52
-18 0 -42 7 -53 15 -10 8 -27 15 -36 15 -34 0 -27 20 14 39 52 23 90 25 143 7z"/>
<path d="M2691 1475 c-161 -45 -260 -202 -231 -367 20 -110 72 -177 180 -227
45 -21 69 -25 135 -25 96 1 152 22 221 86 72 66 96 126 95 236 -1 117 -66 219
-174 272 -76 37 -152 45 -226 25z m164 -144 c51 -23 91 -70 106 -124 23 -88
-18 -172 -104 -213 -58 -27 -88 -29 -138 -12 -57 19 -90 49 -115 102 -28 60
-30 93 -9 144 44 103 159 149 260 103z"/>
<path d="M2728 1255 c-29 -16 -58 -62 -58 -92 0 -34 37 -81 74 -93 98 -32 177
99 102 169 -30 28 -83 35 -118 16z"/>
<path d="M4902 1480 c-107 -22 -203 -108 -237 -211 -26 -78 -17 -189 20 -258
55 -100 154 -155 280 -155 121 0 214 49 274 142 147 233 -66 538 -337 482z
m141 -144 c44 -19 92 -73 107 -120 52 -164 -130 -302 -282 -213 -105 61 -124
213 -36 294 53 50 146 67 211 39z"/>
<path d="M4930 1259 c-38 -15 -60 -49 -60 -95 0 -73 69 -117 137 -89 33 14 63
59 63 95 0 37 -28 77 -61 89 -38 13 -46 13 -79 0z"/>
<path d="M3132 998 c-12 -29 -40 -77 -63 -107 -24 -32 -34 -51 -24 -47 9 3
322 6 696 6 l679 0 0 100 0 100 -633 0 -633 0 -22 -52z"/>
</g>
</svg>
